# xmcd CD database file
#
# Track frame offsets:
#	187
#	21112
#	42975
#	63862
#
# Disc length: 1127 seconds
#
# Revision: 1
# Processed by: cddbd v1.5.2PL0 Copyright (c) Steve Scherf et al.
# Submitted via: CDex 1.70beta2
#
DISCID=2a046504
DTITLE=桜井智 - Friends～時空を超えて～
DYEAR=1997
DGENRE=Anime
TTITLE0=Friends～時空を超えて～
TTITLE1=MY SISTER
TTITLE2=Friends～時空を超えて～/ORIGINAL KARAOKE
TTITLE3=Friends～時空を超えて～/KARAOKE for duet with MYLENE
EXTD=YEAR: 1997
EXTT0=
EXTT1=
EXTT2=
EXTT3=
PLAYORDER=
